<mxfile host="app.diagrams.net" agent="Mozilla/5.0 (Windows NT 10.0; Win64; x64) AppleWebKit/537.36 (KHTML, like Gecko) Chrome/131.0.0.0 Safari/537.36" version="24.9.1">
  <diagram name="Page-1" id="2X6q0HnHElJ3e9SFj8SK">
    <mxGraphModel dx="792" dy="1138" grid="1" gridSize="10" guides="1" tooltips="1" connect="1" arrows="1" fold="1" page="1" pageScale="1" pageWidth="850" pageHeight="1100" math="0" shadow="0">
      <root>
        <mxCell id="0" />
        <mxCell id="1" parent="0" />
        <mxCell id="bT38jPzMWK-sdTLIcd5l-9" style="edgeStyle=orthogonalEdgeStyle;rounded=0;orthogonalLoop=1;jettySize=auto;html=1;" parent="1" source="bT38jPzMWK-sdTLIcd5l-1" edge="1">
          <mxGeometry relative="1" as="geometry">
            <mxPoint x="310" y="446.5" as="targetPoint" />
          </mxGeometry>
        </mxCell>
        <mxCell id="bT38jPzMWK-sdTLIcd5l-1" value="" style="outlineConnect=0;dashed=0;verticalLabelPosition=bottom;verticalAlign=top;align=center;html=1;shape=mxgraph.aws3.lambda;fillColor=#F58534;gradientColor=none;" parent="1" vertex="1">
          <mxGeometry x="80" y="400" width="76.5" height="93" as="geometry" />
        </mxCell>
        <mxCell id="bT38jPzMWK-sdTLIcd5l-10" style="edgeStyle=orthogonalEdgeStyle;rounded=0;orthogonalLoop=1;jettySize=auto;html=1;" parent="1" source="bT38jPzMWK-sdTLIcd5l-2" edge="1">
          <mxGeometry relative="1" as="geometry">
            <mxPoint x="520" y="442" as="targetPoint" />
          </mxGeometry>
        </mxCell>
        <mxCell id="bT38jPzMWK-sdTLIcd5l-2" value="" style="outlineConnect=0;dashed=0;verticalLabelPosition=bottom;verticalAlign=top;align=center;html=1;shape=mxgraph.aws3.android;fillColor=#FFD44F;gradientColor=none;" parent="1" vertex="1">
          <mxGeometry x="320" y="400" width="73.5" height="84" as="geometry" />
        </mxCell>
        <mxCell id="bT38jPzMWK-sdTLIcd5l-6" value="" style="outlineConnect=0;dashed=0;verticalLabelPosition=bottom;verticalAlign=top;align=center;html=1;shape=mxgraph.aws3.ec2;fillColor=#F58534;gradientColor=none;" parent="1" vertex="1">
          <mxGeometry x="540" y="391" width="76.5" height="93" as="geometry" />
        </mxCell>
        <mxCell id="bT38jPzMWK-sdTLIcd5l-11" style="edgeStyle=orthogonalEdgeStyle;rounded=0;orthogonalLoop=1;jettySize=auto;html=1;" parent="1" source="bT38jPzMWK-sdTLIcd5l-8" edge="1">
          <mxGeometry relative="1" as="geometry">
            <mxPoint x="99" y="380" as="targetPoint" />
          </mxGeometry>
        </mxCell>
        <mxCell id="bT38jPzMWK-sdTLIcd5l-8" value="" style="sketch=0;points=[[0,0,0],[0.25,0,0],[0.5,0,0],[0.75,0,0],[1,0,0],[0,1,0],[0.25,1,0],[0.5,1,0],[0.75,1,0],[1,1,0],[0,0.25,0],[0,0.5,0],[0,0.75,0],[1,0.25,0],[1,0.5,0],[1,0.75,0]];outlineConnect=0;fontColor=#232F3E;fillColor=#E7157B;strokeColor=#ffffff;dashed=0;verticalLabelPosition=bottom;verticalAlign=top;align=center;html=1;fontSize=12;fontStyle=0;aspect=fixed;shape=mxgraph.aws4.resourceIcon;resIcon=mxgraph.aws4.eventbridge;" parent="1" vertex="1">
          <mxGeometry x="60" y="180" width="78" height="78" as="geometry" />
        </mxCell>
        <mxCell id="bT38jPzMWK-sdTLIcd5l-12" value="Every 1 hour&lt;div&gt;&lt;br&gt;&lt;/div&gt;" style="text;html=1;align=center;verticalAlign=middle;whiteSpace=wrap;rounded=0;" parent="1" vertex="1">
          <mxGeometry x="130" y="290" width="60" height="30" as="geometry" />
        </mxCell>
        <mxCell id="bT38jPzMWK-sdTLIcd5l-14" value="" style="endArrow=classic;html=1;rounded=0;exitX=0;exitY=0.79;exitDx=0;exitDy=0;exitPerimeter=0;" parent="1" source="bT38jPzMWK-sdTLIcd5l-6" edge="1">
          <mxGeometry width="50" height="50" relative="1" as="geometry">
            <mxPoint x="380" y="310" as="sourcePoint" />
            <mxPoint x="400" y="460" as="targetPoint" />
          </mxGeometry>
        </mxCell>
      </root>
    </mxGraphModel>
  </diagram>
</mxfile>
